<svg xmlns="http://www.w3.org/2000/svg" width="30.452" height="30.452" viewBox="0 0 30.452 30.452">
  <path id="Icon_awesome-phone-alt" data-name="Icon awesome-phone-alt" d="M29.583,21.519l-6.661-2.855a1.427,1.427,0,0,0-1.665.41l-2.95,3.6A22.046,22.046,0,0,1,7.768,12.14l3.6-2.95a1.424,1.424,0,0,0,.41-1.665L8.927.863A1.437,1.437,0,0,0,7.292.036L1.106,1.464A1.427,1.427,0,0,0,0,2.855a27.594,27.594,0,0,0,27.6,27.6,1.427,1.427,0,0,0,1.392-1.106l1.427-6.186a1.445,1.445,0,0,0-.833-1.642Z" transform="translate(0 0)" fill="#095877"/>
</svg>
