<svg xmlns="http://www.w3.org/2000/svg" width="31.579" height="21.316" viewBox="0 0 31.579 21.316">
  <path id="Icon_zocial-email" data-name="Icon zocial-email" d="M.072,23.5V5.956q0-.03.091-.579l10.323,8.831L.194,24.105A2.581,2.581,0,0,1,.072,23.5ZM1.442,4.159a1.312,1.312,0,0,1,.518-.091h27.8a1.724,1.724,0,0,1,.548.091L19.957,13.021l-1.37,1.1-2.71,2.223-2.71-2.223-1.37-1.1Zm.03,21.134,10.384-9.958,4.02,3.258,4.02-3.258L30.28,25.293a1.462,1.462,0,0,1-.518.091H1.96a1.379,1.379,0,0,1-.487-.091ZM21.267,14.209,31.559,5.377a1.818,1.818,0,0,1,.091.579V23.5a2.334,2.334,0,0,1-.091.609Z" transform="translate(-0.072 -4.068)" fill="#095877"/>
</svg>
