<svg xmlns="http://www.w3.org/2000/svg" width="439.689" height="535.828" viewBox="0 0 439.689 535.828">
  <g id="Group_1" data-name="Group 1" transform="translate(-734.13 29.414)">
    <path id="Path_2" data-name="Path 2" d="M926.969,164.955H875.611c-18.741,0-37.486-.249-56.218.133-6.6.135-8.661-2.254-8.365-8.527.375-7.946.09-15.922.09-25.613H827.03q23.041,0,46.082-.006c12.279-.016,12.3-.034,12.307-11.955.011-46.083.148-92.166-.141-138.247-.047-7.384,1.655-10.718,9.649-10.02a119.438,119.438,0,0,0,22.092-.014c8.566-.852,10.146,2.841,10.1,10.546-.3,47.31-.148,94.622-.147,141.934Z" fill="#243656"/>
    <path id="Path_3" data-name="Path 3" d="M1153.287,123.484c0,12.873-.165,24.191.066,35.5.126,6.155-3.768,5.9-7.948,5.9q-37.3-.054-74.594-.023H961.471c-.327-3.288-.808-5.9-.812-8.512-.051-33.152.169-66.307-.189-99.456-.079-7.294,2.207-9.418,9.366-9.456,24.938-.132,24.936-.373,24.936,24.066,0,13.814.532,27.655-.189,41.431-.464,8.863,2.966,10.768,11.1,10.711,45.122-.32,90.248-.154,135.373-.155Z" fill="#3dbdeb"/>
    <path id="Path_4" data-name="Path 4" d="M926.048,314.313H892.666V278.33c0-9.521-.545-19.083.16-28.552.631-8.46-2.885-10.335-10.6-10.291-45.147.261-90.3.125-135.445.109-12.631,0-12.635-.024-12.645-12.368-.008-9.455,0-18.91,0-29.023H926.048Z" fill="#8d1418"/>
    <path id="Path_5" data-name="Path 5" d="M960.739,391.513v-10.6c0-57.129.184-114.26-.2-171.387-.057-8.6,2.55-10.881,10.844-10.771q46.986.623,93.983.011c8.081-.1,11.315,1.8,11.18,10.638-.361,23.576.045,23.582-23.827,23.583-13.822,0-27.659.387-41.459-.154-7.456-.293-9.378,2.4-9.338,9.514.259,46.07-.121,92.146.342,138.214.093,9.186-2.883,11.729-11.542,11.106C981.308,390.989,971.807,391.513,960.739,391.513Z" fill="#553629"/>
    <path id="Path_6" data-name="Path 6" d="M845.1,309.9H813.61V277.71H845.1Z" fill="#8e7b24"/>
    <path id="Path_7" data-name="Path 7" d="M1040.828,53.965h32.851V81.512h-32.851Z" fill="#c12c1b"/>
    <path id="Path_8" data-name="Path 8" d="M1033.339,270.215h32.851v27.547h-32.851Z" fill="#734d24"/>
    <path id="Path_9" data-name="Path 9" d="M814.369,53.965H847.22V81.512H814.369Z" fill="#388aad"/>
    <text id="مجموعة_الفرج_" data-name="مجموعة الفرج " transform="translate(734.819 491.414)" fill="#1a1818" font-size="72" font-family="Tahoma"><tspan x="0" y="0">مجموعة الفرج</tspan><tspan y="0"> </tspan></text>
    <text id="ALFARAJ_GROUP" data-name="ALFARAJ GROUP" transform="translate(943.743 425.816)" fill="#070707" font-size="32.466" font-family="LucidaBright, Lucida Bright"><tspan x="-133.463" y="0">ALFARAJ GROUP</tspan></text>
  </g>
</svg>
